<svg width="56" height="56" viewBox="0 0 56 56" fill="none" xmlns="http://www.w3.org/2000/svg">
<g clip-path="url(#clip0_918_27)">
<path d="M24.4448 0.164059C19.3917 0.820309 14.7651 2.75625 10.7183 5.88437C9.43858 6.87968 7.26202 9.02343 6.20108 10.3359C3.18233 14.0766 1.18077 18.4953 0.327648 23.3078C0.0213976 25.0141 -0.0989149 29.1156 0.0979601 30.9859C0.655773 36.1812 2.63546 41.0812 5.8839 45.2812C6.87921 46.5609 9.02296 48.7375 10.3355 49.7984C15.1698 53.7031 21.4151 56 27.212 56H28.5464V45.0625V34.125H25.5386H22.5308V30.6797V27.2344H25.5386H28.5464V24.1937C28.5464 20.1359 28.7323 18.9328 29.6401 17.15C30.4933 15.4766 31.948 14.175 33.7308 13.5078C35.3605 12.8953 36.6183 12.775 39.7573 12.9062C41.0698 12.9719 42.3167 13.0484 42.5136 13.0812L42.8745 13.1469V16.1875V19.2281L40.3917 19.2719C37.7667 19.3266 37.362 19.3922 36.6401 19.9062C36.4651 20.0266 36.1917 20.4094 36.0167 20.7594L35.7105 21.3828L35.6776 24.3031L35.6339 27.2344H39.123H42.6011L42.1636 30.6797L41.7261 34.125H38.6964H35.6558V44.5594V55.0047L36.2355 54.8406C39.1558 53.9766 42.6448 52.1609 45.2808 50.1156C46.5605 49.1203 48.737 46.9766 49.798 45.6641C52.8167 41.9234 54.7855 37.6031 55.6386 32.8125C56.0214 30.6687 56.1198 26.8406 55.8464 24.6094C54.8511 16.3953 50.3011 9.08906 43.3667 4.52812C39.7683 2.16562 35.7651 0.699996 31.4995 0.164059C29.837 -0.0328163 26.0198 -0.0328163 24.4448 0.164059Z" fill="#BABABA"/>
</g>
<defs>
<clipPath id="clip0_918_27">
<rect width="56" height="56" fill="white"/>
</clipPath>
</defs>
</svg>
