<svg width="56" height="56" viewBox="0 0 56 56" fill="none" xmlns="http://www.w3.org/2000/svg">
<g clip-path="url(#clip0_918_21)">
<path d="M24.4448 0.164245C19.3917 0.820495 14.7651 2.75643 10.7183 5.88456C9.43858 6.87987 7.26202 9.02362 6.20108 10.3361C3.18233 14.0767 1.18077 18.4955 0.327648 23.308C0.0213976 25.0142 -0.0989149 29.1158 0.0979601 30.9861C0.994835 39.3642 5.6214 46.9002 12.7417 51.5486C16.2855 53.8564 20.2776 55.3111 24.6089 55.8471C26.2714 56.0549 29.7714 56.0439 31.4995 55.8361C44.187 54.2611 54.2605 44.1877 55.8355 31.5002C56.0542 29.7283 56.0542 26.2721 55.8355 24.5002C54.8292 16.3627 50.2683 9.06737 43.3667 4.52831C39.7683 2.16581 35.7651 0.700182 31.4995 0.164245C29.837 -0.0326302 26.0198 -0.0326302 24.4448 0.164245ZM35.2839 12.1408C36.9026 12.283 38.0073 12.5783 39.2651 13.2017C40.1401 13.6283 40.4573 13.8689 41.2995 14.7002C42.1308 15.5424 42.3714 15.8596 42.798 16.7346C43.9136 18.9877 44.0011 19.9174 43.9355 28.8752C43.9026 35.383 43.8808 35.8861 43.673 36.8158C42.8745 40.3158 40.6542 42.6892 37.373 43.5205C35.8636 43.9142 34.4198 43.9799 27.9995 43.9799C19.9386 43.9799 18.9105 43.8705 16.7339 42.7986C15.8589 42.3721 15.5417 42.1314 14.6995 41.3002C13.8683 40.458 13.6276 40.1408 13.2011 39.2658C12.1292 37.0892 12.0308 36.1377 12.0308 28.0002C12.0308 19.8627 12.1292 18.9111 13.2011 16.7346C13.6276 15.8596 13.8573 15.5424 14.6995 14.7111C16.0667 13.3549 17.2917 12.7205 19.3917 12.2939C20.912 11.9877 32.2323 11.8783 35.2839 12.1408Z" fill="#BABABA"/>
<path d="M21.2732 14.8749C19.0967 15.0281 17.7076 15.5531 16.6139 16.6468C15.5201 17.7515 15.0498 19.0421 14.8748 21.4156C14.7436 23.2203 14.7436 32.7796 14.8748 34.5843C15.0498 36.9468 15.5311 38.2593 16.6357 39.364C17.7951 40.5343 19.0311 40.9499 21.7654 41.1359C24.0951 41.289 34.8576 41.2015 35.8639 41.0265C38.8717 40.4796 40.4795 38.8718 41.0264 35.864C41.2014 34.8578 41.2889 24.0953 41.1357 21.7656C40.9498 18.9984 40.5451 17.8062 39.3639 16.6359C38.2373 15.5093 36.9576 15.039 34.5186 14.8749C32.8342 14.7546 23.0123 14.7656 21.2732 14.8749ZM37.417 17.7843C38.117 18.1453 38.5873 19.1078 38.3904 19.7859C37.9639 21.2953 36.3561 21.7656 35.2951 20.7046C33.8186 19.2281 35.5576 16.8328 37.417 17.7843ZM30.242 20.1249C31.6748 20.5734 32.6592 21.1749 33.742 22.2578C34.8357 23.3515 35.4264 24.3249 35.8857 25.8124C36.2576 26.9937 36.2576 29.0062 35.8857 30.1874C35.4264 31.6749 34.8357 32.6484 33.742 33.7421C32.6482 34.8359 31.6748 35.4265 30.1873 35.8859C29.0061 36.2578 26.9936 36.2578 25.8123 35.8859C24.3248 35.4265 23.3514 34.8359 22.2576 33.7421C21.1639 32.6484 20.5732 31.6749 20.1139 30.1874C19.742 29.0062 19.742 26.9937 20.1139 25.8124C20.9451 23.1109 22.9686 21.0328 25.5717 20.1796C26.5123 19.8734 27.1139 19.8078 28.3279 19.8515C29.0936 19.8734 29.7279 19.9718 30.242 20.1249Z" fill="#BABABA"/>
<path d="M26.2828 22.8594C24.85 23.3297 23.5266 24.5766 22.9578 25.9984C22.7391 26.5453 22.6953 26.8188 22.6953 28C22.6953 29.1703 22.7391 29.4547 22.9469 29.9906C23.4828 31.3141 24.6859 32.5172 26.0094 33.0531C26.5453 33.2609 26.8297 33.3047 28 33.3047C29.1703 33.3047 29.4547 33.2609 29.9906 33.0531C31.3141 32.5172 32.5172 31.3141 33.0531 29.9906C33.2609 29.4547 33.3047 29.1703 33.3047 28C33.3047 26.8297 33.2609 26.5453 33.0531 26.0094C32.5172 24.6859 31.3031 23.4719 29.9906 22.9578C29.0828 22.5969 27.2344 22.5531 26.2828 22.8594Z" fill="#BABABA"/>
</g>
<defs>
<clipPath id="clip0_918_21">
<rect width="56" height="56" fill="white"/>
</clipPath>
</defs>
</svg>
