<svg width="56" height="56" viewBox="0 0 56 56" fill="none" xmlns="http://www.w3.org/2000/svg">
<g clip-path="url(#clip0_918_31)">
<path d="M24.4448 0.164245C19.3917 0.820495 14.7651 2.75643 10.7183 5.88456C9.43858 6.87987 7.26202 9.02362 6.20108 10.3361C3.18233 14.0767 1.18077 18.4955 0.327648 23.308C0.0213976 25.0142 -0.0989149 29.1158 0.0979601 30.9861C0.994835 39.3642 5.6214 46.9002 12.7417 51.5486C16.2855 53.8564 20.2776 55.3111 24.6089 55.8471C26.2714 56.0549 29.7714 56.0439 31.4995 55.8361C44.187 54.2611 54.2605 44.1877 55.8355 31.5002C56.0542 29.7283 56.0542 26.2721 55.8355 24.5002C54.8292 16.3627 50.2683 9.06737 43.3667 4.52831C39.7683 2.16581 35.7651 0.700182 31.4995 0.164245C29.837 -0.0326302 26.0198 -0.0326302 24.4448 0.164245ZM33.3261 15.9142C38.0511 16.0127 40.9167 16.2752 42.1526 16.7346C42.9073 17.0189 43.9136 17.9158 44.3292 18.6814C44.9964 19.8955 45.2808 22.1267 45.3573 26.7314C45.4448 31.9814 45.1167 35.6455 44.4167 37.133C43.7495 38.5658 42.5464 39.3642 40.6323 39.6486C36.0167 40.3267 20.1901 40.3377 15.5198 39.6486C14.9511 39.5611 14.1964 39.3861 13.8464 39.2658C13.0042 38.9486 12.0308 38.0299 11.5933 37.1549C10.9589 35.8424 10.6089 32.6267 10.6089 28.0002C10.6089 23.6033 10.9589 20.2236 11.5386 18.9549C11.8995 18.1455 12.7964 17.2377 13.6058 16.8439C14.4042 16.4502 15.6292 16.2424 18.1558 16.0674C20.2995 15.9252 26.862 15.7721 29.0386 15.8267C29.8808 15.8377 31.8058 15.8814 33.3261 15.9142Z" fill="#BABABA"/>
<path d="M24.5 28C24.5 30.8875 24.5328 33.25 24.5766 33.25C24.6859 33.25 33.6875 28.0656 33.6875 28C33.6875 27.9344 24.6859 22.75 24.5766 22.75C24.5328 22.75 24.5 25.1125 24.5 28Z" fill="#BABABA"/>
</g>
<defs>
<clipPath id="clip0_918_31">
<rect width="56" height="56" fill="white"/>
</clipPath>
</defs>
</svg>
